<mxfile host="65bd71144e">
    <diagram id="-QSuUYPzdX5tQv0hdnGp" name="Page-1">
        <mxGraphModel dx="540" dy="802" grid="0" gridSize="10" guides="1" tooltips="1" connect="1" arrows="1" fold="1" page="1" pageScale="1" pageWidth="827" pageHeight="1169" background="#ffffff" math="0" shadow="0">
            <root>
                <mxCell id="0"/>
                <mxCell id="1" parent="0"/>
                <mxCell id="40" value="AWS Cloud" style="points=[[0,0],[0.25,0],[0.5,0],[0.75,0],[1,0],[1,0.25],[1,0.5],[1,0.75],[1,1],[0.75,1],[0.5,1],[0.25,1],[0,1],[0,0.75],[0,0.5],[0,0.25]];outlineConnect=0;gradientColor=none;html=1;whiteSpace=wrap;fontSize=12;fontStyle=0;shape=mxgraph.aws4.group;grIcon=mxgraph.aws4.group_aws_cloud_alt;strokeColor=#232F3E;fillColor=none;verticalAlign=top;align=left;spacingLeft=30;fontColor=#232F3E;dashed=0;labelBackgroundColor=none;container=1;pointerEvents=0;collapsible=0;recursiveResize=0;" parent="1" vertex="1">
                    <mxGeometry x="100" y="80" width="509" height="340" as="geometry"/>
                </mxCell>
                <mxCell id="48" value="Lambda &lt;br&gt;IAM Execution Role" style="sketch=0;outlineConnect=0;fontColor=#232F3E;gradientColor=none;fillColor=#BF0816;strokeColor=none;dashed=0;verticalLabelPosition=bottom;verticalAlign=top;align=center;html=1;fontSize=12;fontStyle=1;aspect=fixed;pointerEvents=1;shape=mxgraph.aws4.role;" parent="40" vertex="1">
                    <mxGeometry x="241.73000000000002" y="45" width="60.27" height="34" as="geometry"/>
                </mxCell>
                <mxCell id="62" value="Get Secret" style="edgeStyle=none;html=1;" parent="40" source="49" target="61" edge="1">
                    <mxGeometry relative="1" as="geometry"/>
                </mxCell>
                <mxCell id="49" value="Lambda &lt;br&gt;function" style="sketch=0;points=[[0,0,0],[0.25,0,0],[0.5,0,0],[0.75,0,0],[1,0,0],[0,1,0],[0.25,1,0],[0.5,1,0],[0.75,1,0],[1,1,0],[0,0.25,0],[0,0.5,0],[0,0.75,0],[1,0.25,0],[1,0.5,0],[1,0.75,0]];outlineConnect=0;fontColor=#232F3E;gradientColor=#F78E04;gradientDirection=north;fillColor=#D05C17;strokeColor=#ffffff;dashed=0;verticalLabelPosition=bottom;verticalAlign=top;align=center;html=1;fontSize=12;fontStyle=1;aspect=fixed;shape=mxgraph.aws4.resourceIcon;resIcon=mxgraph.aws4.lambda;" parent="40" vertex="1">
                    <mxGeometry x="244" y="151" width="58" height="58" as="geometry"/>
                </mxCell>
                <mxCell id="51" value="X-Ray&lt;br&gt;Configuration" style="sketch=0;points=[[0,0,0],[0.25,0,0],[0.5,0,0],[0.75,0,0],[1,0,0],[0,1,0],[0.25,1,0],[0.5,1,0],[0.75,1,0],[1,1,0],[0,0.25,0],[0,0.5,0],[0,0.75,0],[1,0.25,0],[1,0.5,0],[1,0.75,0]];outlineConnect=0;fontColor=#232F3E;gradientColor=#4D72F3;gradientDirection=north;fillColor=#3334B9;strokeColor=#ffffff;dashed=0;verticalLabelPosition=bottom;verticalAlign=top;align=center;html=1;fontSize=12;fontStyle=1;aspect=fixed;shape=mxgraph.aws4.resourceIcon;resIcon=mxgraph.aws4.xray;" parent="40" vertex="1">
                    <mxGeometry x="76" y="230" width="49" height="49" as="geometry"/>
                </mxCell>
                <mxCell id="60" value="" style="group" parent="40" vertex="1" connectable="0">
                    <mxGeometry x="25" y="45" width="151" height="140" as="geometry"/>
                </mxCell>
                <mxCell id="55" value="&lt;b&gt;&amp;nbsp; &amp;nbsp; &amp;nbsp; &amp;nbsp; &amp;nbsp; &amp;nbsp; &amp;nbsp; CloudWatch&lt;/b&gt;" style="rounded=0;whiteSpace=wrap;html=1;fontSize=12;align=left;labelPosition=center;verticalLabelPosition=middle;verticalAlign=top;container=0;" parent="60" vertex="1">
                    <mxGeometry width="151" height="140" as="geometry"/>
                </mxCell>
                <mxCell id="53" value="" style="sketch=0;points=[[0,0,0],[0.25,0,0],[0.5,0,0],[0.75,0,0],[1,0,0],[0,1,0],[0.25,1,0],[0.5,1,0],[0.75,1,0],[1,1,0],[0,0.25,0],[0,0.5,0],[0,0.75,0],[1,0.25,0],[1,0.5,0],[1,0.75,0]];points=[[0,0,0],[0.25,0,0],[0.5,0,0],[0.75,0,0],[1,0,0],[0,1,0],[0.25,1,0],[0.5,1,0],[0.75,1,0],[1,1,0],[0,0.25,0],[0,0.5,0],[0,0.75,0],[1,0.25,0],[1,0.5,0],[1,0.75,0]];outlineConnect=0;fontColor=#232F3E;gradientColor=#F34482;gradientDirection=north;fillColor=#BC1356;strokeColor=#ffffff;dashed=0;verticalLabelPosition=bottom;verticalAlign=top;align=center;html=1;fontSize=12;fontStyle=0;aspect=fixed;shape=mxgraph.aws4.resourceIcon;resIcon=mxgraph.aws4.cloudwatch_2;" parent="60" vertex="1">
                    <mxGeometry width="39" height="39" as="geometry"/>
                </mxCell>
                <mxCell id="52" value="Lambda&lt;br&gt;Log Group" style="sketch=0;outlineConnect=0;fontColor=#232F3E;gradientColor=none;fillColor=#B0084D;strokeColor=none;dashed=0;verticalLabelPosition=bottom;verticalAlign=top;align=center;html=1;fontSize=12;fontStyle=1;aspect=fixed;pointerEvents=1;shape=mxgraph.aws4.logs;" parent="60" vertex="1">
                    <mxGeometry x="53.31" y="56" width="44.38" height="33" as="geometry"/>
                </mxCell>
                <mxCell id="61" value="Secret Manager:&#10;Lambda secret" style="shape=image;verticalLabelPosition=bottom;labelBackgroundColor=default;verticalAlign=top;aspect=fixed;imageAspect=0;image=data:image/jpeg,/9j/4AAQSkZJRgABAQAAAQABAAD/2wCEAAkGBw8NDQ0NDRAVEA8VDg4VFw4QFw8PDRcPFxEWGhYXFRUYHSggGBolGxcVIjEhJSkrLi4uFx8/ODMsNygtLisBCgoKDg0OGhAQGi0lICIrLS0rLi0rNS0vLS8tLS0rLS0tLS0tLS0tLS0tKy0tLS8tLS0rKy0tKy0tLS0tNS0tLf/AABEIAOEA4QMBIgACEQEDEQH/xAAbAAACAwEBAQAAAAAAAAAAAAABAgAGBwUEA//EAEkQAAEDAgMEBQYKBwcFAQAAAAEAAgMEEQUSIQYxQVETYXGR0QciMlKBoRQXIzNicpKxwfAkQlOTotLxFTU2Y4KEskNzdMPhJf/EABsBAQADAQEBAQAAAAAAAAAAAAABAgQDBQYH/8QANhEAAgECAwQJAgQHAQAAAAAAAAECAxEEITEFEkFREyJhcYGRobHwMtEUQsHxFSNSYnKi4SX/2gAMAwEAAhEDEQA/AOKilRXlH6MMilRQDIpUUA6KRMFAGRSooBkQlRQDJgkRQDopQigGRSooBkUqKAZFKioAyZImQDopEyEDBFKiEAyiF1EBXgilRCsSMilRQDIpUUAyKVFAOEUiZQBgilRQDBEJUUAyYJEQgHRSooBkUqKAZFKigGRSoqAOikTIB0UiZCA3UQUQFfRSBMrEjBFKiEBZ9j9lnYi6Rzn5ImaFwsXFxFwAOXWubjuDTUE5hmGm9rh6Dm82+HBLgGNzUE4liOmgc0+g5nI+PBat+h47Rf06aKW356iF2hCM42X1HlYrFV8LW3550nlks4v54NdumNIroY7g81BMYZRpva4fNuZzb4cFzlx0yZ6kZRlFSi7p6DIpQiChYdFdnB9lKyrsWMyMP/UkuyO3VxPsVuoPJzCLGomc/wCjGGsb2XIJPuV40py0Rhr7Rw1DKc8+SzfpkvFozld/YqiiqK5kUzQ9ha8lpvvDSQr9Hg+E0ou5kAtxlc2R38RK9OHVmHdM2OlMBlIdYRBl7Aa6jqXWNG0ldo8+vtdVKUujpz0eelu3K5RNv8MhpZ4G07BG0w3IF9TncL6qrhbPi9ZQxvaysMYcW3HShp82/M9a8Zw/Car0W05vxjLWO72kKZ0bydmu4phdq9HRiqkJPL6tb9vxmSplo1Z5Pad3zEr4zydlkZ7Nx+9VfFtkKumu4N6Vg/WizP0627wuUqU48D0qG0sNWyjOz5PL/nqcJFAjmouRvGRSr1YfRSVMrIYW5nOO7gBxJPABSVlJRV3oj4Ihe/GcHlopOjlFwRdr23ykdRXPRprJkQnGcVKLumMilRVSw6KQIhAOolUQWK+ilRVgOikTIBgungGNTUE4lhOmgcw+g5nI+PBctFSnbNESjGcXGSunqjabUePUX9Omilt+eohZXjuDTUEzoZRpva4fNuZzHhwS4BjU1BOJYTpucw/NubyPjwWrfomO0X9Omilt+eohaMqy/u9zwuvsyfF0ZPxi/ng126ZDRUxnljhaQHPcGguOVtzzK1PBdkqTD2dPUlr5ALmSSwhafog/edexZtjmDzUE7opR1tcPQc3m0/hwUxPHKmrEbZ5XOaxoAadG6DeQN56yuUJKDd1mbsVRqYpRVKpaD1tq12P0ay7b6F8xnyhxMuyjj6V27pJLiL2NGp9ypuIbTVtRfpJ3WP6jSWM7mrioqJVJy1Z0w+Aw9BdSKvzeb8/tZH0LiTcm55nUrtbIYlHR1jJpiQwNeDlBcblpA0XCRVIuzuaqsFUg4S0at5lo24xmGumhfTklrYspzAtN8zjxVcaTzSIqZPed2VoUlRpqnDRaHUocdq6e3RTPaPVLi5n2TcK3YP5Qb2ZWMt/mxXt/qafwPsWfBEK0ako6M418Dh6668V3rJ+a/Y1nEsCosUj6aEgPI0nite/J7eP3rN8Xw91JO+BzmuLbatNxru7D1JMMxWekfngkLTxGhYR1tOhUo6aatnDWAySPcSXHU3J1JPLrUznGeizOGEw1XDOSlUvTSyvqu98EvliYdRyVMrIYW3c46DgBxJPADmtQwvDabCKZ8kjhe13ym1yeDW9WmgQwrDafB6Z8kjhe13zHeTwa3q5BUDaTaCSulufNiaTkj4AczzcV0SVFXf1P0MU5z2lPchlSWr/q+cF4vgg7R4++ulufNjbfJHyHM83FchKis7bbuz26dONOKhBWSGRSoqC4yISoqAMogogK+ilRViRkQlRQgdFIjdCT00lJLMS2FjnuDS4hguQ0bzZe7AcamoJxLCepzD6Dm8j48FpOxODtw6hNRPpI9nSPJ3tjAuG92p6yszx/EBV1c87WBjXyXDWgDQaAn6R3k8yusobiTvmedQxUcVUqUlG8Flfm+Vva3K/I1m1JjlF/QzRS2/PUQsqx3BpqCYwyjTUtcPm3M5jw4JcAxqagnEsJ03Fh+bc3kfHgtPr6ygxTDnTzODY2gkuOXpopcu4dfVxXR2qrtXqYkqmzqlleVKT73Fv53SXbpkKKB6u/cu9shs+7EKjKbiJli94324AdZ+66zpNuyPaq1I0oOc3ZLU8+C4BU1zrQRktBsXu82Mf6+J6grhR+TYWvPPryjbcd5Xcx3HqbCIWQxsGfL5kDNAG83HgPeVQMQ2zr53EiUxNvo2LzAPbvPeu7jThk82ePCtjsZ1qVoQ4N6v0f6Is9R5N2W+SqHX+m0W9yqmObM1VD50jM8f7ZnnN9vL2o0e11fC4H4QXj1ZflGnv17ir5sztbFiHyE7QyYg/JnWJ442vx6iiVKeSyYnPaGEW/NqpFa8GvRfr3GVBFWnbnZwUUjZoG/IPdu9R/q9h4e1VULhKLi7M9ahWhWpqpDRjK4bC49TUglZO0NLgSJwCXEAegfwsqcikZOLuiMRh416bpz0fI7m0m0ElfLfUQtJyR8AObublzZqWSNsb3sc1rwS1zhYEcwkop+ikjkyh+VzHZSLxmxvYjkVq+J00WL4eHRkElueM8WyAeifuKvGDqXd8zJXxEcF0cFG0Hlfl4erb1ztmZMig5paS1wsQSCDvBG8FRcj0RkUqKAZFKigGUQUUAr6KVFXJGRSohQBlYdhsK+GV0TXC8bPlH8sjToD2mwVdWqeSagy001URrJIGg/QaLk/acR/pXSlHemkYdo1+gw0prXRd7+XJ5UsZ6KFlFGbOks51uEYNmj2kH7KzBdfa/EPhOIVEt7tzlrfqM80fd71x0qS3pXJ2fh1Qw8YcbXfe/tp4DBMHcOHLgkRC5m0Za95O4Gw4YJOL3Pe49gsPcFkC2TY3+54/+1L+K74f6vA8Xbjf4ZLnJezMoxOufVVEk8h85z3O14DgPYLBeZKNyK4Htbqj1VoskMvrBK6N7XsOVwcCHDeHDcviiEBseNAVuDukI851MyUDk8NDvvWPgrYKT+4mf+B/61j/E9q71+D7DxtjLdVWC0U8vb9BkUqKznsDK9eTXF8sjqJ58113M+uBqPa0X9hVEXqwyrNPPDO3eyRh7na+66vCW7JMz4vDrEUZU3xWXfwLJ5QsN6Gr6VosyUZjyzjR34H2qrBajt7TCow7pmalhjkB45Dofc6/sWWK9aO7N24mbZVd1cNG+seq/DT0HRSorieiMilRQDKJVEBwEUqKsSMilRQDhbVgoFHgUbrWLaN0h+s5pd95WbYbsTXVMLJ4WNMbgC0l0bTbs4LVMXw6V+FPpIgDKadrA0kNFwADqtFCMld24HgbXr0qnR0lJfV1s9LZZ+bMMc4kknfc96gXdxfZKsoYTPO0NYHNFw9rjcmw0C4KztNanuQqwqreg012DopEVBcs2D7GVtZC2eMMYx18pe4sJHMAA6LTdncMkpsPZTSZekDHg5SS25vbW3WvNs/O6LBI5mWzMo5Xi+7M0OIv3Kl/GRW+pF9k+K1x3KVm73aPma6xePc4R3d2Eva67SDyc13rRfvH/AMiPxc13rQ/vJP5EPjHrfUi+yfFT4xq31YvsnxXL+V2m9vajekA/FzXetD9t/wDIj8XVd60P23/yIfGLW+rF9k+KPxi1vqR/ZPin8rtI/wDU5QL7T4bIzDG0hy9KKQR6E5M+W2+272LPK7YetgjfKejc1rSSI3OLrDebFouvt8Ylb6sf2T4q84ZXuqsK+ES2zvgqL5dG6Zx9wXV7lXLPJGBfjMAnOW7aclfvd+63ExkJkvE9qKxn07VmMilXXwbZ6prmvfA0ODXAHMWt1tfipSbyRSdSNOO9N2XNmk4E/wCFYQ1h1LqaSM9oaWrJOJvzWv7HYdLSUXQTgNcHvNgQ4ZT1j2qjV+xla0zS5W5AZHXzsvkuTu7FpqwbjF24Hh7OxNGnWrxc1ZyvHPXN6ehWQmSXRWU98dFKihAyiCiA4CiCKsSFFKigLng3lAno6aKmZBG5rGhoc7PmPbYrS8VxV8OHOrY2tLhC2TK6+XUAnd2rAgttoCKvAWt3k0JafrtYQfeFpozk7q/DI+d2thaNN06iis5dbtvn9ygbQ7bzYhTGnfCxrS5jszC/NdpvxVVQO89qizuTlmz3qVCnRW5TVlyGTJEVU6Gz4V/h7/YVH/B6xzie0rY8K/w9/sKj/g9Y3xPaV3rfl7jx9k/VX/zf6n0YCS0DUkgAdZWsYHsnSUNP01Y1j5MoL3S2MTOpoOgtz3rKqKURyxyHUB8biOoOBWy7T4ccUoGtp5ALlkjSfRdYHzXW7e8BKMU7u12uBXa9WUXTp7zjGT6zXh+/7Hmrdm8PxKnLqXo2u1yzQZbZxweBvHUVlFXTOhlkikFnMe5pHWCtY2HwB+Gwz9O8ZnuBLQbsa1oOt+Zvr2BZltLVtnrqmaP0DK8g8xe11NZdVSasyuyqj6apSjNzhG1m+fK/n32uXLBdgqeopYJ3SytdJEx5a3JlBI3C4Vthw9tHhz6ZhLmsgnAc62Y3DjrbTisbhxeqY1rGTyNaBYNDngAcgFquzsrpMEa+QlzjT1F3ON3HWTeVejKOiVnYy7UoYiEVKpUvFzyVtNX6acDITvPaVAgd57SosZ9M9R139nNqJMPZIxkbHh7w4l2e4NraWVeRVk2ndHOrShVjuTV1yNq2WxZ1bS/CJGhhzuFm3tYdvaqdiO3sx6eHoY8pMjM3n3y3Lb796s2yrRTYRG92gEMkh9oLlkjnEkk7yST2rRVqSUY58MzwcBhKFSvWbgnGMrR7M3pmFFKisp9EMmCRFCBlEFEBwEy+aZWJHUQCKAK17yT1wloJIHG5ilOn+W8Zh/F0iyBWzybYt8FxBrHG0cw6M8sxN2nv+9dKUt2aZ5+1KHTYWSWqzXh/y5ydpKE0tdUwnhI+31SbtPcQuctH8rWDaxV7BwETwOWpa495H2VmyipDdk0dsDXVehGfG1n3rJ/fxGTBImC5ms2jCv8AD3+wqP8Ag9Y1xPaVsuEAnZ8AAkmgnAA3k5H6ALJP7LqLn5CXf+zk8F3rfl7jxdlSSlXu/wA/3PMrt5M8Vn+FtpDITAWSHIbEBwaSC07x7FU/7LqP2Mv7uTwXqw+OupZBNTxyxyAEB4jkJsRY6OBC5wluyTN+KpxrUZU7rNZX58Hx0Lr5UcVnjfDTRyFsT4czmt0LjmIsTvtu0WdNXVxM4jWuD6mOSQtblDujc0ht720A4rx/2ZUfsJf3cngk5b0myuCpRw9GNO6utbcc9c7XyNJ2fgwg0dMZhTmUxMzF+TPmtrfrVkc2EUMopg0Q9BNlEduj3Ova3XdYn/ZlT+xl+xJ4LWNm2OZgbWvBDhT1F2uBa4G8m8FaKU75W4HibSwippT6RyvPRu6Wryz4exkHE9pUQO89pUWQ+olqMvvRU5lljibq572ADrJsvOrp5NMI6WpNU8ebEDl5GRw07gSe0hWjHeaRnxNdUKUqj4L14epbNsphR4S+Nm8sZC32jX+EOWSK5+U3E+kqI6Zpu2Nt3fXd4C3eqUr15Xn3GPZFF08MnLWXWfjp6Z+I6KVELiekMilRQDKIKICvooKKxIwTr5ohAfRFhIIINiCCCNCDwISooDbtncQixnDCyaxcWdFK3iH5fSHboR/8WQ43hz6OpmppPSa61+BaRdrh2ghNgmO1FA97qd9nPa5puMwy8DbmOCSipajEKkMZmmmkeSXOLib8S5x3Ac11nPfS5nm4TCPC1KklJKm80uXPuS0PGmVz2r2F+AUjKhkgdlDRKHWaM5O+Pq4W36KlLnKLi7M2YfEU68N+m7o0nZjb2npaOGnmY/PGC27bFpFyQfeut8ZdF6kvc3xWQoroq80rGKex8LOTk07t31Ne+Mqi9SXub4qfGVRepL3N8VkQRTp5lP4LhOT8zXfjJovUl7m+Knxk0XqS9zfFZGmTp5j+C4Tk/M1v4yKL1Je5vivLiXlCpXwSsjjkL3RvaMwAbmItqVl6ITp5krY2ETTs/M9uF4fLVzNhgbdzj7AOJceAC++N4PNQTGGYdYkHoObzafw4IYBjU1BOJojpuc0+g6PkfHgtXPwTHaL+nTRS2/PUQohTU1ZalsZjKmGqxlKN6bybWqfzTmuN9MfpKd00kcTBdz3tDR9ImwWw/JYLhvMsb2F858T7gspxrCZsPnMcgtbVsjcwYW30IP5smxPHaisjijnkLmxg2J9Ik8SeJ60hPcvlmTjMK8Z0dpLo73duPK3t2d+njqah0sj5ZDdznFxPWSvmlRXI9EdFIioA4RSohANdRKogOAmSqK5IyKUIhQBgnC+a9uE4bNWTMp4GFzyd25oHEuPADmhDairvQbC8Omq5mU8DC55Og4AcXOPADmtmwbCqXAqN0krhmsDJObAudwa0crjQIYNhVLgVG6SVwzZQZZzbM51vRZ1X3BZftftRLic1zdkDSeji4D6TuZPuWhJUld/UeDOc9pz3IZUlq/6vnBeL4B2u2olxKa582FpPRxcAObubj7lx6iklit0rC27Q5uZrm5mEXDm33jrCmHzMjmikljEjGyNLoybAgHcStposSw7G4eicGvcBrC/KJmm29vV1hUjHpG7vM3YnEfgYwUKbcFq1w+74u/dcxFMr5tD5Npo80lA7pmfsnkCUDqO53uPaqTV0M0DiyeN0bhwLHtPvVJQcdUasPiqOIV6Uk/fy1PiiEoXZ2UwhuIVbKZ7ywFrzmbYu81t+Kqk27I6VJxpxc5aJXZyUQu/tns8zDZoo2SOeHxh13BoIOYi2nYq+jTTsyKVWNWCnDR6DopqemklcGxMe5xPotBcb9gVwwHye1M+V9V+jx+obOmI+qNG+3XqUxi5aIpXxFKgr1JJe/lqVOmppJnhkTHSOO5jQXu7gvdgOMzUE4liPU5h9Bzb7nePBar/+dgkPCMkdTqiT8T9yyjaCvjqqqWoij6Jr3XyXv53Fx5E79FecNy2eZkw2L/Gby6N9HbV8eat7W07zWP0THaLT8Omilt+eohZXjuDTUE5imGm9rhfo3N5t8OCXAMbmoJ2yxHTQOafm3M5H8DwWr/omO0Wn4dNFLb89RC6ZVl/d7mLr7MnxdGT8Yv54NdumMoroY7gs1BOYphpva4fNuZzHhwXOWfQ92MozipRd09BkUqKgkdFImUAKiCiA4IRSJlckKZKogGC7Oy+PyYbUiaPVpGV7DuLM2ovwK4yiJ2zRWcIzi4yV09Sx7XbUy4nKCbsgb6EN7gfSdzK4K+aZG23dkU6cacFCCskOmhlcxzXscWkG4c0lpB5gjckRUFy84H5SamEBlS0VDR+uTllt9bce5XCk22wusAZM4MPqVLG5ftat94WLIrrGtNHm19kYaq95LdfOOXpp7G2ybLYRWDPGyNwP60DwAfa0r64PsXSUdQ2pgLw4B4DXEObZwsetYex5aczSQ71ho7vCt/k9xR4xGMTzkR9HNfpJHhl8htcONleNWLavFGLEbOxFOjLdrycUnk755aas0fHtlKbEJY5agvu1gaA05RbMTr3ryR7IYVTDM9jQBxmfcfxFVPyn4r+k0/waoOXoDfoZDkzZ3b8p3qiSSuecz3OJ5uJce8qZ1IqT6pXCYDEVKEW60oxtovbVGzVO1WFUIyRvYT6lK1rj3jze8qrYv5SZpAWUkYiH7R/ny+zgPeqCEQubrzfYbaOyMNTe9JOT5yz9Pvc9FVVPme6SV5e473uJc7+nUvmkCYLiemMF08AxuagmE0R03OYfQc3kfHguWEQpTtmiJRjOLjJXT1RtP6JjtF/TpopbfnqIWV49gs1BOYphpva4fNubzHhwS4BjU1BOJojpuc0/NuZyPjwVl202ugrqeOGGO5815dIPPY71Wfid1l2nKM43f1e55OHw9fCV1CC3qUv9fn+3fpS0UqK4HrjIpUUAyiCigHARSoq5I6KRMgCmSohAFEIKKAOmXzCIQH0UQRQBRSooBwikRQDIoKKAMilRQgdEJEyAZFKiEAyKVFAMilRQDXUQUQHARSJlYkZFKigHRSJkAwRSohAFFKEVAGCcL5pkA6iCKAKKVFAMilRQDIhKioAyKVFCB0UgTIBgilRCAZFKEUAyiCiA4IRUUViQoqKIAhEKKIAoqKICIhFRAROoooAQooogGUUUQBRUUQBTIKKAOoFFEAQiFFEICEQiogImCiiAiiiiA//Z;fontStyle=1" parent="40" vertex="1">
                    <mxGeometry x="422" y="153" width="54" height="54" as="geometry"/>
                </mxCell>
                <mxCell id="63" value="Resource Policy:&lt;br&gt;AllowExecutionFromS3Buckets" style="sketch=0;outlineConnect=0;fontColor=#232F3E;gradientColor=none;fillColor=#3F8624;strokeColor=none;dashed=0;verticalLabelPosition=bottom;verticalAlign=top;align=center;html=1;fontSize=12;fontStyle=1;aspect=fixed;pointerEvents=1;shape=mxgraph.aws4.policy;" vertex="1" parent="40">
                    <mxGeometry x="305" y="221" width="51.22" height="44" as="geometry"/>
                </mxCell>
            </root>
        </mxGraphModel>
    </diagram>
</mxfile>